<?xml version="1.0" encoding="iso-8859-1"?>
<!-- Uploaded to: SVG Repo, www.svgrepo.com, Generator: SVG Repo Mixer Tools -->
<svg height="800px" width="800px" version="1.1" id="Layer_1" xmlns="http://www.w3.org/2000/svg" xmlns:xlink="http://www.w3.org/1999/xlink" 
	 viewBox="0 0 512.001 512.001" xml:space="preserve">
<path style="fill:#245475;" d="M506.611,107.499L404.503,5.391c-4.87-4.87-12.053-6.615-18.614-4.515L248.531,44.8
	c-6.993,2.236-11.987,8.415-12.707,15.72l-13.908,141.094L5.391,418.14c-7.186,7.186-7.186,18.835,0,26.021l62.45,62.45
	c3.513,3.514,8.217,5.39,13.014,5.39c2.156,0,4.331-0.38,6.424-1.159l55.323-20.625c5.368-2.002,9.498-6.39,11.17-11.87
	l11.674-38.249l30.36-3.108c8.605-0.881,15.435-7.636,16.409-16.231l3.026-26.908l21.607-0.177c0.015,0,0.027,0,0.042,0
	c8.664,0,16.159-5.82,17.986-14.293l9.354-43.25l46.156-46.1l141.094-13.88c7.306-0.72,13.485-5.7,15.72-12.692l43.924-137.35
	C513.224,119.545,511.481,112.369,506.611,107.499z M419.429,175.841c-3.593,3.593-8.302,5.39-13.01,5.39s-9.418-1.796-13.01-5.389
	l-57.248-57.247c-7.186-7.186-7.186-18.835,0-26.021c7.184-7.186,18.835-7.186,26.021,0l57.248,57.247
	C426.616,157.005,426.616,168.655,419.429,175.841z"/>
<path style="fill:#2C6991;" d="M336.162,92.572c7.184-7.186,18.835-7.186,26.021,0l28.624,28.624l64.751-64.751L404.503,5.391
	c-4.87-4.87-12.053-6.615-18.614-4.515L248.531,44.8c-6.993,2.236-11.987,8.415-12.707,15.72l-13.908,141.094L5.391,418.14
	c-7.186,7.186-7.186,18.835,0,26.021l31.224,31.224l328.169-328.168l-28.624-28.624C328.976,111.409,328.976,99.758,336.162,92.572z
	"/>
</svg>